<svg xmlns="http://www.w3.org/2000/svg" width="939.497" height="311.115" viewBox="0 0 939.497 311.115">
  <g id="Group_29" data-name="Group 29" transform="translate(-603.003 -1247)">
    <g id="Group_27" data-name="Group 27" transform="translate(244 -888)">
      <g id="Group_26" data-name="Group 26" transform="translate(26 -149)">
        <text id="MAYANK" transform="translate(568 2439)" fill="#31f7ff" font-size="106" font-family="CenturyGothic, Century Gothic" letter-spacing="0.326em"><tspan x="25.108" y="103">MAYANK</tspan></text>
        <g id="Group_24" data-name="Group 24" transform="matrix(-0.981, -0.193, 0.193, -0.981, 533.12, 2611.263)">
          <path id="Path_31" data-name="Path 31" d="M0,0,19.967,3.574,14.115,27.526Z" transform="translate(0 222.359)" fill="#ff7f30"/>
          <path id="Path_32" data-name="Path 32" d="M60.243,55.056,0,62.2,5.852,38.252,16.524,0Z" transform="translate(14.115 187.681)" fill="#7c0a0a"/>
          <path id="Path_33" data-name="Path 33" d="M19.622,0l69.2,102.243L0,155.508Z" transform="translate(83.653)" fill="#31f8f7"/>
          <path id="Path_34" data-name="Path 34" d="M124.275,39.68,72.638,69.352,0,25.024,16.523,0Z" transform="translate(108.096 174.814)" fill="#7c0a0a"/>
          <path id="Path_35" data-name="Path 35" d="M62.348,89.353,43.719,140.494,0,85.439,53.014,53.266,141.832,0,62.348,89.353" transform="translate(30.639 102.243)" fill="#ff7f30"/>
          <path id="Path_36" data-name="Path 36" d="M18.628,0,63.342,94.4,0,51.142Z" transform="translate(74.358 191.595)" fill="#31f8f7"/>
          <path id="Path_37" data-name="Path 37" d="M31.633,72.571,15.24,97.4l-.224.132L.042,89.442,0,89.353,79.484,0Z" transform="translate(92.987 102.243)" fill="#31f8f7"/>
          <path id="Path_38" data-name="Path 38" d="M0,0,14.974,8.086l.224-.132-.131.2L87.705,52.481l60.931,40.038L44.672,94.307Z" transform="translate(93.029 191.685)" fill="#ff7f30"/>
        </g>
      </g>
      <line id="Line_15" data-name="Line 15" x2="674" transform="translate(624.5 2275.5)" fill="none" stroke="#ff8130" stroke-width="4"/>
      <line id="Line_16" data-name="Line 16" x2="795" transform="translate(503.5 2437.5)" fill="none" stroke="#ff8130" stroke-width="4"/>
    </g>
  </g>
</svg>
